<!DOCTYPE svg PUBLIC "-//W3C//DTD SVG 1.1//EN" "http://www.w3.org/Graphics/SVG/1.1/DTD/svg11.dtd">
<!-- Uploaded to: SVG Repo, www.svgrepo.com, Transformed by: SVG Repo Mixer Tools -->
<svg fill="#a3a3a3" height="800px" width="800px" version="1.1" id="Layer_1" xmlns="http://www.w3.org/2000/svg" xmlns:xlink="http://www.w3.org/1999/xlink" viewBox="0 0 512 512" xml:space="preserve" stroke="#a3a3a3">
<g id="SVGRepo_bgCarrier" stroke-width="0"/>
<g id="SVGRepo_tracerCarrier" stroke-linecap="round" stroke-linejoin="round"/>
<g id="SVGRepo_iconCarrier"> <g> <g> <path d="M484.111,258.418c-15.598-15.598-36.238-25.341-58.127-27.446c-0.019-0.001-0.038-0.005-0.056-0.006 c-0.013-0.001-0.027-0.004-0.041-0.005c-2.934-0.286-5.997-0.431-9.102-0.431h-42.846c-15.44,0-30.715-5.152-43.007-14.504 l-5.068-3.856l6.587-6.999c4.579-4.867,4.346-12.525-0.522-17.105c-4.865-4.579-12.526-4.346-17.105,0.521l-8.327,8.848 l-11.581-8.812l10.172-10.807c4.581-4.865,4.35-12.525-0.517-17.105c-4.868-4.582-12.528-4.349-17.105,0.517l-11.916,12.659 l-11.731-8.926l12.953-13.765c4.58-4.865,4.35-12.524-0.517-17.105s-12.524-4.35-17.105,0.517l-14.697,15.617l-35.256-26.827 c-3.658-2.785-8.58-3.254-12.7-1.212c-4.12,2.042-6.726,6.244-6.726,10.842c0,15.149-5.902,29.399-16.611,40.118 c-10.727,10.716-24.982,16.618-40.138,16.618H56.974l-38.791-22.56c-3.742-2.177-8.365-2.186-12.117-0.028S0,173.335,0,177.664 v148.08v53.228c0,6.682,5.417,12.1,12.1,12.1h487.8c6.682,0,12.1-5.418,12.1-12.1v-53.228 C512,300.313,502.096,276.403,484.111,258.418z M434.812,257.062c12.088,3.179,23.247,9.528,32.187,18.469 c10.516,10.516,17.328,23.747,19.78,38.113H276.139c4.784-11.698,16.281-19.965,29.676-19.965h80.32 C409.201,293.679,428.701,278.185,434.812,257.062z M24.2,254.958h15.077c15.965,0,31.033,5.186,43.573,14.998 c2.213,1.732,4.84,2.57,7.448,2.57c3.594,0,7.152-1.594,9.538-4.644c4.118-5.264,3.19-12.868-2.074-16.986 c-16.84-13.174-37.062-20.138-58.485-20.138H24.2v-32.06l23.428,13.626c1.848,1.074,3.946,1.64,6.083,1.64h79.316 c21.617,0,41.946-8.417,57.25-23.708c9.923-9.932,16.951-21.983,20.661-35.13l16.846,12.819l-9.554,10.152 c-4.579,4.868-4.344,12.526,0.524,17.105c2.337,2.197,5.314,3.286,8.287,3.286c3.221,0,6.435-1.279,8.816-3.809l11.291-11.998 l11.729,8.925l-12.329,13.098c-4.58,4.865-4.349,12.523,0.518,17.103c2.337,2.2,5.317,3.29,8.291,3.29 c3.22,0,6.432-1.278,8.814-3.807l14.071-14.95l11.581,8.812l-15.915,16.909c-4.58,4.865-4.35,12.523,0.517,17.105 c2.336,2.2,5.318,3.29,8.292,3.29c3.219,0,6.431-1.278,8.812-3.807l17.66-18.761l7.089,5.394 c16.481,12.54,36.961,19.447,57.661,19.447h35.925c-4.332,8.731-13.338,14.749-23.728,14.749h-80.32 c-26.864,0-49.378,18.938-54.929,44.165H24.2V254.958z M487.8,366.872H24.2v-29.028h463.6V366.872z"/> </g> </g> <g> <g> <path d="M111.152,276.198c-5.013,0.824-9.056,4.868-9.881,9.881c-1.361,8.276,5.704,15.343,13.982,13.982 c5.013-0.824,9.056-4.868,9.881-9.881C126.495,281.902,119.43,274.837,111.152,276.198z"/> </g> </g> </g>
</svg>