<!DOCTYPE svg PUBLIC "-//W3C//DTD SVG 1.1//EN" "http://www.w3.org/Graphics/SVG/1.1/DTD/svg11.dtd">
<!-- Uploaded to: SVG Repo, www.svgrepo.com, Transformed by: SVG Repo Mixer Tools -->
<svg version="1.1" id="_x32_" xmlns="http://www.w3.org/2000/svg" xmlns:xlink="http://www.w3.org/1999/xlink" viewBox="0 0 512 512" xml:space="preserve" width="800px" height="800px" fill="#000000">
<g id="SVGRepo_bgCarrier" stroke-width="0"/>
<g id="SVGRepo_tracerCarrier" stroke-linecap="round" stroke-linejoin="round"/>
<g id="SVGRepo_iconCarrier"> <style type="text/css"> .st0{fill:#a3a3a3;} </style> <g> <rect x="171.13" y="332.719" class="st0" width="169.734" height="20.043"/> <rect x="171.13" y="383.074" class="st0" width="169.734" height="20.051"/> <rect x="171.13" y="427.84" class="st0" width="80.214" height="20.051"/> <path class="st0" d="M349.151,215.082c-8.888,0-16.095,7.203-16.095,16.086c0,8.902,7.207,16.106,16.095,16.106 c8.892,0,16.1-7.203,16.1-16.106C365.251,222.285,358.044,215.082,349.151,215.082z"/> <path class="st0" d="M417.674,215.082c-8.892,0-16.095,7.203-16.095,16.086c0,8.902,7.203,16.106,16.095,16.106 s16.099-7.203,16.099-16.106C433.773,222.285,426.566,215.082,417.674,215.082z"/> <path class="st0" d="M486.555,160.656c-9.267-9.289-22.206-15.09-36.348-15.164c-0.013,0-0.087,0-0.12,0 c-0.037,0-0.074-0.008-0.112-0.008v0.008c-0.049,0-0.086,0-0.152,0h-36.687V80.758L332.38,0h-8.303H98.859v145.492H62.073 c-0.025,0-0.028,0-0.054,0c-14.241,0-27.279,5.82-36.6,15.18l0.013-0.016c-9.346,9.32-15.16,22.352-15.16,36.609v164.082 c0,14.258,5.81,27.297,15.16,36.625c9.037,9.066,21.58,14.734,35.306,15.09l0.165,0.066h37.956V512h314.278v-98.879l36.81,0.008 c0.416-0.008,0.623-0.043,0.63-0.031v-0.012c13.986-0.164,26.781-5.914,35.973-15.113c9.35-9.313,15.177-22.348,15.177-36.625 V197.266C501.727,183,495.896,169.969,486.555,160.656z M321.045,36.871l53.359,53.363h-53.359V36.871z M132.948,34.086 l168.045,0.008v76.192h78.054v41.223H132.948V34.086z M379.047,477.914H132.948v-84.836h-0.012v-88.527h246.098v102.562h0.013 V477.914z M467.641,361.348c-0.009,4.945-1.961,9.274-5.184,12.512c-3.246,3.223-7.582,5.176-12.51,5.176h-42.839V276.48H104.862 v102.555H62.049c-4.949,0-9.276-1.953-12.514-5.176c-3.214-3.23-5.168-7.558-5.176-12.512V197.266 c0.008-4.93,1.957-9.266,5.179-12.512c3.243-3.215,7.57-5.16,12.51-5.176h42.826h302.246h42.826 c4.92,0.016,9.255,1.961,12.507,5.192c3.226,3.246,5.179,7.582,5.188,12.496V361.348z"/> </g> </g>
</svg>